<?xml version="1.0" encoding="utf-8"?>
<!-- Generator: Adobe Illustrator 24.1.3, SVG Export Plug-In . SVG Version: 6.00 Build 0)  -->
<svg version="1.1" xmlns="http://www.w3.org/2000/svg" xmlns:xlink="http://www.w3.org/1999/xlink" x="0px" y="0px"
	 viewBox="0 0 803 600" style="enable-background:new 0 0 803 600;" xml:space="preserve">
<style type="text/css">
	.st0{fill:#F1F4EF;}
	.st1{fill:#538C3B;}
	.st2{fill:#8F9B3A;}
	.st3{font-family:'Alfarn';}
	.st4{font-size:135.385px;}
	.st5{fill:#FFFFFF;}
	.st6{fill:none;}
	.st7{font-size:48px;}
</style>
<g id="Layer_2">
	<g>
		<rect x="0.73" y="0.34" class="st0" width="803" height="350"/>
		<path class="st1" d="M141.05,247.31c0,6.82-5.78,12.35-12.9,12.35c-17.09-0.61-17.09-24.09,0-24.69
			C135.28,234.96,141.05,240.49,141.05,247.31z"/>
		<rect x="0.73" y="333.65" class="st1" width="449.92" height="266.69"/>
		<g>
			<path class="st1" d="M128.15,293.52c-7.12,0-12.9-5.53-12.9-12.35c0.63-16.36,25.17-16.36,25.8,0
				C141.05,288,135.28,293.52,128.15,293.52z"/>
			<path class="st1" d="M128.15,324.39c-7.12,0-12.9-5.53-12.9-12.35c0.63-16.36,25.17-16.36,25.8,0
				C141.05,318.86,135.28,324.39,128.15,324.39z"/>
			<polyline class="st1" points="141.05,312.05 141.05,281.18 115.26,281.18 115.26,312.05 			"/>
		</g>
		<g>
			<path class="st0" d="M102.36,389.22c-7.12,0-12.9-5.53-12.9-12.35c0.63-16.36,25.17-16.36,25.8,0
				C115.26,383.69,109.48,389.22,102.36,389.22z"/>
			<polyline class="st0" points="115.26,376.87 115.26,330.57 89.46,330.57 89.46,376.87 			"/>
		</g>
		<g>
			<path class="st0" d="M153.95,364.52c-7.12,0-12.9-5.53-12.9-12.35c0.63-16.36,25.17-16.36,25.8,0
				C166.85,358.99,161.08,364.52,153.95,364.52z"/>
			<polyline class="st0" points="166.85,352.17 166.85,305.87 141.05,305.87 141.05,352.17 			"/>
		</g>
		<rect x="113.64" y="329.02" class="st0" width="29.02" height="16.98"/>
		<g>
			<path class="st1" d="M128.15,358.35c-7.12,0-12.9-5.53-12.9-12.35c0.63-16.36,25.17-16.36,25.8,0
				C141.05,352.82,135.28,358.35,128.15,358.35z"/>
			<path class="st1" d="M128.15,389.22c-7.12,0-12.9-5.53-12.9-12.35c0.63-16.36,25.17-16.36,25.8,0
				C141.05,383.69,135.28,389.22,128.15,389.22z"/>
			<polyline class="st1" points="141.05,376.87 141.05,346 115.26,346 115.26,376.87 			"/>
		</g>
		<polyline class="st0" points="166.85,424.71 166.85,390.76 141.05,390.76 141.05,424.71 		"/>
		<path class="st0" d="M153.95,403.11c-7.12,0-12.9-5.53-12.9-12.35c0.63-16.36,25.17-16.36,25.8,0
			C166.85,397.58,161.08,403.11,153.95,403.11z"/>
		<g>
			<path class="st0" d="M205.55,376.87c-7.12,0-12.9-5.53-12.9-12.35c0.63-16.36,25.17-16.36,25.8,0
				C218.45,371.34,212.68,376.87,205.55,376.87z"/>
			<polyline class="st0" points="218.45,364.52 218.45,318.22 192.65,318.22 192.65,364.52 			"/>
		</g>
		<g>
			<path class="st0" d="M257.15,352.17c-7.12,0-12.9-5.53-12.9-12.35c0.63-16.36,25.17-16.36,25.8,0
				C270.05,346.65,264.28,352.17,257.15,352.17z"/>
			<polyline class="st0" points="270.05,339.83 270.05,293.52 244.25,293.52 244.25,339.83 			"/>
		</g>
		<rect x="218.45" y="316.68" class="st0" width="29.02" height="16.98"/>
		<g>
			<path class="st1" d="M231.35,332.11c-7.12,0-12.9-5.53-12.9-12.35c0.63-16.36,25.17-16.36,25.8,0
				C244.25,326.58,238.48,332.11,231.35,332.11z"/>
			<path class="st1" d="M231.35,362.98c-7.12,0-12.9-5.53-12.9-12.35c0.63-16.36,25.17-16.36,25.8,0
				C244.25,357.45,238.48,362.98,231.35,362.98z"/>
			<polyline class="st1" points="244.25,350.63 244.25,319.76 218.45,319.76 218.45,350.63 			"/>
		</g>
		<path class="st0" d="M218.45,398.48c0,6.82-5.78,12.35-12.9,12.35c-17.09-0.61-17.09-24.09,0-24.69
			C212.68,386.13,218.45,391.66,218.45,398.48z"/>
		<g>
			<polyline class="st0" points="270.05,412.37 270.05,378.41 244.25,378.41 244.25,412.37 			"/>
			<g>
				<path class="st0" d="M257.15,424.71c-7.12,0-12.9-5.53-12.9-12.35c0.63-16.36,25.17-16.36,25.8,0
					C270.05,419.19,264.28,424.71,257.15,424.71z"/>
				<path class="st0" d="M257.15,390.76c-7.12,0-12.9-5.53-12.9-12.35c0.63-16.36,25.17-16.36,25.8,0
					C270.05,385.23,264.28,390.76,257.15,390.76z"/>
			</g>
		</g>
		<g>
			<path class="st1" d="M76.56,327.48c-7.12,0-12.9-5.53-12.9-12.35c0.63-16.36,25.17-16.36,25.8,0
				C89.46,321.95,83.68,327.48,76.56,327.48z"/>
			<path class="st1" d="M76.56,358.35c-7.12,0-12.9-5.53-12.9-12.35c0.63-16.36,25.17-16.36,25.8,0
				C89.46,352.82,83.68,358.35,76.56,358.35z"/>
			<polyline class="st1" points="89.46,346 89.46,315.13 63.66,315.13 63.66,346 			"/>
		</g>
		<g>
			<path class="st1" d="M179.75,341.37c-7.12,0-12.9-5.53-12.9-12.35c0.63-16.36,25.17-16.36,25.8,0
				C192.65,335.84,186.88,341.37,179.75,341.37z"/>
			<path class="st1" d="M179.75,372.24c-7.12,0-12.9-5.53-12.9-12.35c0.63-16.36,25.17-16.36,25.8,0
				C192.65,366.71,186.88,372.24,179.75,372.24z"/>
			<polyline class="st1" points="192.65,359.89 192.65,329.02 166.85,329.02 166.85,359.89 			"/>
		</g>
		<path class="st1" d="M244.25,281.18c0,6.82-5.78,12.35-12.9,12.35c-17.09-0.61-17.09-24.09,0-24.69
			C238.48,268.83,244.25,274.36,244.25,281.18z"/>
		<g>
			<path class="st1" d="M284.56,278.09c-7.12,0-12.9-5.53-12.9-12.35c0.63-16.36,25.17-16.36,25.8,0
				C297.46,272.56,291.69,278.09,284.56,278.09z"/>
			<path class="st1" d="M284.56,308.96c-7.12,0-12.9-5.53-12.9-12.35c0.63-16.36,25.17-16.36,25.8,0
				C297.46,303.43,291.69,308.96,284.56,308.96z"/>
			<polyline class="st1" points="297.46,296.61 297.46,265.74 271.67,265.74 271.67,296.61 			"/>
		</g>
		<g>
			<path class="st1" d="M334.55,324.39c-7.12,0-12.9-5.53-12.9-12.35c0.63-16.36,25.17-16.36,25.8,0
				C347.45,318.86,341.68,324.39,334.55,324.39z"/>
			<path class="st1" d="M334.55,355.26c-7.12,0-12.9-5.53-12.9-12.35c0.63-16.36,25.17-16.36,25.8,0
				C347.45,349.73,341.68,355.26,334.55,355.26z"/>
			<polyline class="st1" points="347.45,342.91 347.45,312.05 321.65,312.05 321.65,342.91 			"/>
		</g>
		<g>
			<path class="st1" d="M386.15,315.13c-7.12,0-12.9-5.53-12.9-12.35c0.63-16.36,25.17-16.36,25.8,0
				C399.05,309.6,393.28,315.13,386.15,315.13z"/>
			<path class="st1" d="M386.15,346c-7.12,0-12.9-5.53-12.9-12.35c0.63-16.36,25.17-16.36,25.8,0
				C399.05,340.47,393.28,346,386.15,346z"/>
			<polyline class="st1" points="399.05,333.65 399.05,302.78 373.25,302.78 373.25,333.65 			"/>
		</g>
		<g>
			<path class="st2" d="M437.75,342.91c-7.12,0-12.9-5.53-12.9-12.35c0.63-16.36,25.17-16.36,25.8,0
				C450.65,337.39,444.87,342.91,437.75,342.91z"/>
			<path class="st2" d="M437.75,373.78c-7.12,0-12.9-5.53-12.9-12.35c0.63-16.36,25.17-16.36,25.8,0
				C450.65,368.25,444.87,373.78,437.75,373.78z"/>
			<polyline class="st2" points="450.65,361.43 450.65,330.57 424.85,330.57 424.85,361.43 			"/>
		</g>
		<g>
			<polyline class="st0" points="321.65,364.52 321.65,330.57 295.85,330.57 295.85,364.52 			"/>
			<g>
				<path class="st0" d="M308.75,376.87c-7.12,0-12.9-5.53-12.9-12.35c0.63-16.36,25.17-16.36,25.8,0
					C321.65,371.34,315.88,376.87,308.75,376.87z"/>
				<path class="st0" d="M308.75,342.91c-7.12,0-12.9-5.53-12.9-12.35c0.63-16.36,25.17-16.36,25.8,0
					C321.65,337.39,315.88,342.91,308.75,342.91z"/>
			</g>
		</g>
		<g>
			<path class="st1" d="M282.95,346c-7.12,0-12.9-5.53-12.9-12.35c0.63-16.36,25.17-16.36,25.8,0
				C295.85,340.47,290.08,346,282.95,346z"/>
			<path class="st1" d="M282.95,376.87c-7.12,0-12.9-5.53-12.9-12.35c0.63-16.36,25.17-16.36,25.8,0
				C295.85,371.34,290.08,376.87,282.95,376.87z"/>
			<polyline class="st1" points="295.85,364.52 295.85,333.65 270.05,333.65 270.05,364.52 			"/>
		</g>
		<g>
			<polyline class="st0" points="373.25,347.54 373.25,313.59 347.45,313.59 347.45,347.54 			"/>
			<g>
				<path class="st0" d="M360.35,359.89c-7.12,0-12.9-5.53-12.9-12.35c0.63-16.36,25.17-16.36,25.8,0
					C373.25,354.36,367.48,359.89,360.35,359.89z"/>
				<path class="st0" d="M360.35,325.94c-7.12,0-12.9-5.53-12.9-12.35c0.63-16.36,25.17-16.36,25.8,0
					C373.25,320.41,367.48,325.94,360.35,325.94z"/>
			</g>
		</g>
		<g>
			<polyline class="st0" points="373.25,412.37 373.25,378.41 347.45,378.41 347.45,412.37 			"/>
			<g>
				<path class="st0" d="M360.35,424.71c-7.12,0-12.9-5.53-12.9-12.35c0.63-16.36,25.17-16.36,25.8,0
					C373.25,419.19,367.48,424.71,360.35,424.71z"/>
				<path class="st0" d="M360.35,390.76c-7.12,0-12.9-5.53-12.9-12.35c0.63-16.36,25.17-16.36,25.8,0
					C373.25,385.23,367.48,390.76,360.35,390.76z"/>
			</g>
		</g>
		<path class="st0" d="M321.65,404.65c0,6.82-5.78,12.35-12.9,12.35c-17.09-0.61-17.09-24.09,0-24.69
			C315.88,392.3,321.65,397.83,321.65,404.65z"/>
		<g>
			<polyline class="st0" points="424.85,364.52 424.85,330.57 399.05,330.57 399.05,364.52 			"/>
			<g>
				<path class="st0" d="M411.95,376.87c-7.12,0-12.9-5.53-12.9-12.35c0.63-16.36,25.17-16.36,25.8,0
					C424.85,371.34,419.07,376.87,411.95,376.87z"/>
				<path class="st0" d="M411.95,342.91c-7.12,0-12.9-5.53-12.9-12.35c0.63-16.36,25.17-16.36,25.8,0
					C424.85,337.39,419.07,342.91,411.95,342.91z"/>
			</g>
		</g>
		<path class="st0" d="M424.85,395.39c0,6.82-5.78,12.35-12.9,12.35c-17.09-0.61-17.09-24.09,0-24.69
			C419.07,383.04,424.85,388.57,424.85,395.39z"/>
		<g>
			<path class="st1" d="M437.75,268.83c-7.12,0-12.9-5.53-12.9-12.35c0.63-16.36,25.17-16.36,25.8,0
				C450.65,263.3,444.87,268.83,437.75,268.83z"/>
			<path class="st1" d="M437.75,299.7c-7.12,0-12.9-5.53-12.9-12.35c0.63-16.36,25.17-16.36,25.8,0
				C450.65,294.17,444.87,299.7,437.75,299.7z"/>
			<polyline class="st1" points="450.65,287.35 450.65,256.48 424.85,256.48 424.85,287.35 			"/>
		</g>
		<path class="st1" d="M399.05,268.83c0,6.82-5.78,12.35-12.9,12.35c-17.09-0.61-17.09-24.09,0-24.69
			C393.28,256.48,399.05,262.01,399.05,268.83z"/>
		<path class="st0" d="M153.96,436.98c-7.12,0-12.9-5.53-12.9-12.35c0.63-16.36,25.17-16.36,25.8,0
			C166.86,431.45,161.09,436.98,153.96,436.98z"/>
		<path class="st1" d="M502.25,262.55c0,6.82-5.78,12.35-12.9,12.35c-17.09-0.61-17.09-24.09,0-24.69
			C496.48,250.2,502.25,255.73,502.25,262.55z"/>
		<rect x="424.86" y="345.89" class="st1" width="378.88" height="254.45"/>
		<g>
			<path class="st1" d="M489.35,305.76c-7.12,0-12.9-5.53-12.9-12.35c0.63-16.36,25.17-16.36,25.8,0
				C502.25,300.23,496.48,305.76,489.35,305.76z"/>
			<path class="st1" d="M489.35,336.63c-7.12,0-12.9-5.53-12.9-12.35c0.63-16.36,25.17-16.36,25.8,0
				C502.25,331.1,496.48,336.63,489.35,336.63z"/>
			<polyline class="st1" points="502.25,324.28 502.25,293.41 476.46,293.41 476.46,324.28 			"/>
		</g>
		<g>
			<path class="st0" d="M463.56,401.45c-7.12,0-12.9-5.53-12.9-12.35c0.63-16.36,25.17-16.36,25.8,0
				C476.46,395.92,470.68,401.45,463.56,401.45z"/>
			<polyline class="st0" points="476.46,389.11 476.46,342.8 450.66,342.8 450.66,389.11 			"/>
		</g>
		<g>
			<path class="st0" d="M515.15,376.76c-7.12,0-12.9-5.53-12.9-12.35c0.63-16.36,25.17-16.36,25.8,0
				C528.05,371.23,522.28,376.76,515.15,376.76z"/>
			<polyline class="st0" points="528.05,364.41 528.05,318.11 502.25,318.11 502.25,364.41 			"/>
		</g>
		<rect x="474.84" y="341.26" class="st0" width="29.02" height="16.98"/>
		<g>
			<path class="st1" d="M489.35,370.58c-7.12,0-12.9-5.53-12.9-12.35c0.63-16.36,25.17-16.36,25.8,0
				C502.25,365.06,496.48,370.58,489.35,370.58z"/>
			<path class="st1" d="M489.35,401.45c-7.12,0-12.9-5.53-12.9-12.35c0.63-16.36,25.17-16.36,25.8,0
				C502.25,395.92,496.48,401.45,489.35,401.45z"/>
			<polyline class="st1" points="502.25,389.11 502.25,358.24 476.46,358.24 476.46,389.11 			"/>
		</g>
		<polyline class="st0" points="528.05,436.95 528.05,403 502.25,403 502.25,436.95 		"/>
		<path class="st0" d="M515.15,415.34c-7.12,0-12.9-5.53-12.9-12.35c0.63-16.36,25.17-16.36,25.8,0
			C528.05,409.82,522.28,415.34,515.15,415.34z"/>
		<g>
			<path class="st0" d="M566.75,389.11c-7.12,0-12.9-5.53-12.9-12.35c0.63-16.36,25.17-16.36,25.8,0
				C579.65,383.58,573.88,389.11,566.75,389.11z"/>
			<polyline class="st0" points="579.65,376.76 579.65,330.46 553.85,330.46 553.85,376.76 			"/>
		</g>
		<g>
			<path class="st0" d="M618.35,364.41c-7.12,0-12.9-5.53-12.9-12.35c0.63-16.36,25.17-16.36,25.8,0
				C631.25,358.88,625.48,364.41,618.35,364.41z"/>
			<polyline class="st0" points="631.25,352.06 631.25,305.76 605.45,305.76 605.45,352.06 			"/>
		</g>
		<rect x="579.65" y="328.91" class="st0" width="29.02" height="16.98"/>
		<g>
			<path class="st1" d="M592.55,344.35c-7.12,0-12.9-5.53-12.9-12.35c0.63-16.36,25.17-16.36,25.8,0
				C605.45,338.82,599.68,344.35,592.55,344.35z"/>
			<path class="st1" d="M592.55,375.21c-7.12,0-12.9-5.53-12.9-12.35c0.63-16.36,25.17-16.36,25.8,0
				C605.45,369.69,599.68,375.21,592.55,375.21z"/>
			<polyline class="st1" points="605.45,362.87 605.45,332 579.65,332 579.65,362.87 			"/>
		</g>
		<path class="st0" d="M579.65,410.71c0,6.82-5.78,12.35-12.9,12.35c-17.09-0.61-17.09-24.09,0-24.69
			C573.88,398.37,579.65,403.89,579.65,410.71z"/>
		<g>
			<polyline class="st0" points="631.25,424.6 631.25,390.65 605.45,390.65 605.45,424.6 			"/>
			<g>
				<path class="st0" d="M618.35,436.95c-7.12,0-12.9-5.53-12.9-12.35c0.63-16.36,25.17-16.36,25.8,0
					C631.25,431.42,625.48,436.95,618.35,436.95z"/>
				<path class="st0" d="M618.35,403c-7.12,0-12.9-5.53-12.9-12.35c0.63-16.36,25.17-16.36,25.8,0
					C631.25,397.47,625.48,403,618.35,403z"/>
			</g>
		</g>
		<g>
			<path class="st1" d="M437.76,339.72c-7.12,0-12.9-5.53-12.9-12.35c0.63-16.36,25.17-16.36,25.8,0
				C450.66,334.19,444.88,339.72,437.76,339.72z"/>
			<path class="st1" d="M437.76,370.58c-7.12,0-12.9-5.53-12.9-12.35c0.63-16.36,25.17-16.36,25.8,0
				C450.66,365.06,444.88,370.58,437.76,370.58z"/>
			<polyline class="st1" points="450.66,358.24 450.66,327.37 424.86,327.37 424.86,358.24 			"/>
		</g>
		<g>
			<path class="st1" d="M540.95,353.61c-7.12,0-12.9-5.53-12.9-12.35c0.63-16.36,25.17-16.36,25.8,0
				C553.85,348.08,548.08,353.61,540.95,353.61z"/>
			<path class="st1" d="M540.95,384.47c-7.12,0-12.9-5.53-12.9-12.35c0.63-16.36,25.17-16.36,25.8,0
				C553.85,378.95,548.08,384.47,540.95,384.47z"/>
			<polyline class="st1" points="553.85,372.13 553.85,341.26 528.05,341.26 528.05,372.13 			"/>
		</g>
		<path class="st1" d="M605.45,293.41c0,6.82-5.78,12.35-12.9,12.35c-17.09-0.61-17.09-24.09,0-24.69
			C599.68,281.07,605.45,286.59,605.45,293.41z"/>
		<g>
			<path class="st1" d="M645.76,290.33c-7.12,0-12.9-5.53-12.9-12.35c0.63-16.36,25.17-16.36,25.8,0
				C658.66,284.8,652.89,290.33,645.76,290.33z"/>
			<path class="st1" d="M645.76,321.2c-7.12,0-12.9-5.53-12.9-12.35c0.63-16.36,25.17-16.36,25.8,0
				C658.66,315.67,652.89,321.2,645.76,321.2z"/>
			<polyline class="st1" points="658.66,308.85 658.66,277.98 632.87,277.98 632.87,308.85 			"/>
		</g>
		<g>
			<path class="st1" d="M695.75,336.63c-7.12,0-12.9-5.53-12.9-12.35c0.63-16.36,25.17-16.36,25.8,0
				C708.65,331.1,702.88,336.63,695.75,336.63z"/>
			<path class="st1" d="M695.75,367.5c-7.12,0-12.9-5.53-12.9-12.35c0.63-16.36,25.17-16.36,25.8,0
				C708.65,361.97,702.88,367.5,695.75,367.5z"/>
			<polyline class="st1" points="708.65,355.15 708.65,324.28 682.85,324.28 682.85,355.15 			"/>
		</g>
		<g>
			<polyline class="st0" points="682.85,376.76 682.85,342.8 657.05,342.8 657.05,376.76 			"/>
			<g>
				<path class="st0" d="M669.95,389.11c-7.12,0-12.9-5.53-12.9-12.35c0.63-16.36,25.17-16.36,25.8,0
					C682.85,383.58,677.08,389.11,669.95,389.11z"/>
				<path class="st0" d="M669.95,355.15c-7.12,0-12.9-5.53-12.9-12.35c0.63-16.36,25.17-16.36,25.8,0
					C682.85,349.62,677.08,355.15,669.95,355.15z"/>
			</g>
		</g>
		<g>
			<path class="st1" d="M644.15,358.24c-7.12,0-12.9-5.53-12.9-12.35c0.63-16.36,25.17-16.36,25.8,0
				C657.05,352.71,651.28,358.24,644.15,358.24z"/>
			<path class="st1" d="M644.15,389.11c-7.12,0-12.9-5.53-12.9-12.35c0.63-16.36,25.17-16.36,25.8,0
				C657.05,383.58,651.28,389.11,644.15,389.11z"/>
			<polyline class="st1" points="657.05,376.76 657.05,345.89 631.25,345.89 631.25,376.76 			"/>
		</g>
		<path class="st0" d="M682.85,416.89c0,6.82-5.78,12.35-12.9,12.35c-17.09-0.61-17.09-24.09,0-24.69
			C677.08,404.54,682.85,410.07,682.85,416.89z"/>
		<path class="st0" d="M515.16,449.22c-7.12,0-12.9-5.53-12.9-12.35c0.63-16.36,25.17-16.36,25.8,0
			C528.06,443.69,522.29,449.22,515.16,449.22z"/>
		<path class="st1" d="M63.66,327.48c0,0-0.57,6.49-7.75,6.17c-0.17-0.31,3.83,7.69,3.83,7.69l7-8l-2-6"/>
		<path class="st1" d="M708.66,339.98c0,0,0.57,6.49,7.75,6.17c0.17-0.31-3.83,7.69-3.83,7.69l-7-8l2-6"/>
	</g>
	<text transform="matrix(1.0004 0 0 1 156.5545 174.5076)" class="st3 st4">LUCHT</text>
	<path class="st1" d="M314.01,77.03"/>
	<rect x="249.81" y="69.47" width="31.44" height="27.17"/>
	<path d="M263.27,55.48c0,1.19-1,2.15-2.24,2.15c-2.97-0.11-2.97-4.19,0-4.29C262.27,53.34,263.27,54.3,263.27,55.48z"/>
	<g>
		<path d="M252.37,59.82c-1.24,0-2.24-0.96-2.24-2.15c0.11-2.84,4.37-2.84,4.48,0C254.62,58.85,253.61,59.82,252.37,59.82z"/>
		<path d="M252.37,65.18c-1.24,0-2.24-0.96-2.24-2.15c0.11-2.84,4.37-2.84,4.48,0C254.62,64.22,253.61,65.18,252.37,65.18z"/>
		<polyline points="254.62,63.03 254.62,57.67 250.13,57.67 250.13,63.03 		"/>
	</g>
	<g>
		<path d="M261.06,67.86c-1.24,0-2.24-0.96-2.24-2.15c0.11-2.84,4.37-2.84,4.48,0C263.31,66.9,262.3,67.86,261.06,67.86z"/>
		<path d="M261.06,73.23c-1.24,0-2.24-0.96-2.24-2.15c0.11-2.84,4.37-2.84,4.48,0C263.31,72.27,262.3,73.23,261.06,73.23z"/>
		<polyline points="263.31,71.08 263.31,65.72 258.82,65.72 258.82,71.08 		"/>
	</g>
	<g>
		<path d="M270.03,66.25c-1.24,0-2.24-0.96-2.24-2.15c0.11-2.84,4.37-2.84,4.48,0C272.27,65.29,271.27,66.25,270.03,66.25z"/>
		<path d="M270.03,71.62c-1.24,0-2.24-0.96-2.24-2.15c0.11-2.84,4.37-2.84,4.48,0C272.27,70.66,271.27,71.62,270.03,71.62z"/>
		<polyline points="272.27,69.47 272.27,64.11 267.79,64.11 267.79,69.47 		"/>
	</g>
	<g>
		<polyline class="st0" points="258.82,74.84 258.82,68.94 254.34,68.94 254.34,74.84 		"/>
		<g>
			<path class="st0" d="M256.58,76.98c-1.24,0-2.24-0.96-2.24-2.15c0.11-2.84,4.37-2.84,4.48,0
				C258.82,76.02,257.82,76.98,256.58,76.98z"/>
			<path class="st0" d="M256.58,71.08c-1.24,0-2.24-0.96-2.24-2.15c0.11-2.84,4.37-2.84,4.48,0
				C258.82,70.12,257.82,71.08,256.58,71.08z"/>
		</g>
	</g>
	<g>
		<path d="M252.09,71.62c-1.24,0-2.24-0.96-2.24-2.15c0.11-2.84,4.37-2.84,4.48,0C254.34,70.66,253.33,71.62,252.09,71.62z"/>
		<path d="M252.09,76.98c-1.24,0-2.24-0.96-2.24-2.15c0.11-2.84,4.37-2.84,4.48,0C254.34,76.02,253.33,76.98,252.09,76.98z"/>
		<polyline points="254.34,74.84 254.34,69.47 249.85,69.47 249.85,74.84 		"/>
	</g>
	<g>
		<polyline class="st0" points="267.79,71.89 267.79,65.99 263.31,65.99 263.31,71.89 		"/>
		<g>
			<path class="st0" d="M265.55,74.03c-1.24,0-2.24-0.96-2.24-2.15c0.11-2.84,4.37-2.84,4.48,0
				C267.79,73.07,266.79,74.03,265.55,74.03z"/>
			<path class="st0" d="M265.55,68.13c-1.24,0-2.24-0.96-2.24-2.15c0.11-2.84,4.37-2.84,4.48,0
				C267.79,67.17,266.79,68.13,265.55,68.13z"/>
		</g>
	</g>
	<g>
		<polyline class="st0" points="267.79,83.15 267.79,77.25 263.31,77.25 263.31,83.15 		"/>
		<g>
			<path class="st0" d="M265.55,85.3c-1.24,0-2.24-0.96-2.24-2.15c0.11-2.84,4.37-2.84,4.48,0C267.79,84.34,266.79,85.3,265.55,85.3
				z"/>
			<path class="st0" d="M265.55,79.4c-1.24,0-2.24-0.96-2.24-2.15c0.11-2.84,4.37-2.84,4.48,0C267.79,78.44,266.79,79.4,265.55,79.4
				z"/>
		</g>
	</g>
	<path class="st0" d="M258.82,81.81c0,1.19-1,2.15-2.24,2.15c-2.97-0.11-2.97-4.19,0-4.29C257.82,79.67,258.82,80.63,258.82,81.81z"
		/>
	<g>
		<polyline class="st0" points="276.76,74.84 276.76,68.94 272.27,68.94 272.27,74.84 		"/>
		<g>
			<path class="st0" d="M274.52,76.98c-1.24,0-2.24-0.96-2.24-2.15c0.11-2.84,4.37-2.84,4.48,0
				C276.76,76.02,275.75,76.98,274.52,76.98z"/>
			<path class="st0" d="M274.52,71.08c-1.24,0-2.24-0.96-2.24-2.15c0.11-2.84,4.37-2.84,4.48,0
				C276.76,70.12,275.75,71.08,274.52,71.08z"/>
		</g>
	</g>
	<path class="st5" d="M276.76,80.2c0,1.19-1,2.15-2.24,2.15c-2.97-0.11-2.97-4.19,0-4.29C275.75,78.06,276.76,79.02,276.76,80.2z"/>
	<g>
		<path d="M279,58.21c-1.24,0-2.24-0.96-2.24-2.15c0.11-2.84,4.37-2.84,4.48,0C281.24,57.24,280.24,58.21,279,58.21z"/>
		<path d="M279,63.57c-1.24,0-2.24-0.96-2.24-2.15c0.11-2.84,4.37-2.84,4.48,0C281.24,62.61,280.24,63.57,279,63.57z"/>
		<polyline points="281.24,61.42 281.24,56.06 276.76,56.06 276.76,61.42 		"/>
	</g>
	<g>
		<path d="M279,71.4c-1.24,0-2.24-0.96-2.24-2.15c0.11-2.84,4.37-2.84,4.48,0C281.24,70.43,280.24,71.4,279,71.4z"/>
		<path d="M279,76.76c-1.24,0-2.24-0.96-2.24-2.15c0.11-2.84,4.37-2.84,4.48,0C281.24,75.8,280.24,76.76,279,76.76z"/>
		<polyline points="281.24,74.61 281.24,69.25 276.76,69.25 276.76,74.61 		"/>
	</g>
	<rect x="312.78" y="72.68" width="31.44" height="27.17"/>
	<path d="M326.25,58.69c0,1.19-1,2.15-2.24,2.15c-2.97-0.11-2.97-4.19,0-4.29C325.24,56.54,326.25,57.5,326.25,58.69z"/>
	<g>
		<path d="M315.35,63.02c-1.24,0-2.24-0.96-2.24-2.15c0.11-2.84,4.37-2.84,4.48,0C317.59,62.06,316.59,63.02,315.35,63.02z"/>
		<path d="M315.35,68.38c-1.24,0-2.24-0.96-2.24-2.15c0.11-2.84,4.37-2.84,4.48,0C317.59,67.42,316.59,68.38,315.35,68.38z"/>
		<polyline points="317.59,66.24 317.59,60.87 313.11,60.87 313.11,66.24 		"/>
	</g>
	<g>
		<path d="M324.04,71.07c-1.24,0-2.24-0.96-2.24-2.15c0.11-2.84,4.37-2.84,4.48,0C326.28,70.1,325.28,71.07,324.04,71.07z"/>
		<path d="M324.04,76.43c-1.24,0-2.24-0.96-2.24-2.15c0.11-2.84,4.37-2.84,4.48,0C326.28,75.47,325.28,76.43,324.04,76.43z"/>
		<polyline points="326.28,74.29 326.28,68.92 321.8,68.92 321.8,74.29 		"/>
	</g>
	<g>
		<path d="M333.01,69.46c-1.24,0-2.24-0.96-2.24-2.15c0.11-2.84,4.37-2.84,4.48,0C335.25,68.5,334.25,69.46,333.01,69.46z"/>
		<path d="M333.01,74.82c-1.24,0-2.24-0.96-2.24-2.15c0.11-2.84,4.37-2.84,4.48,0C335.25,73.86,334.25,74.82,333.01,74.82z"/>
		<polyline points="335.25,72.68 335.25,67.31 330.76,67.31 330.76,72.68 		"/>
	</g>
	<g>
		<polyline class="st0" points="321.8,78.04 321.8,72.14 317.31,72.14 317.31,78.04 		"/>
		<g>
			<path class="st0" d="M319.55,80.19c-1.24,0-2.24-0.96-2.24-2.15c0.11-2.84,4.37-2.84,4.48,0
				C321.8,79.23,320.79,80.19,319.55,80.19z"/>
			<path class="st0" d="M319.55,74.29c-1.24,0-2.24-0.96-2.24-2.15c0.11-2.84,4.37-2.84,4.48,0
				C321.8,73.32,320.79,74.29,319.55,74.29z"/>
		</g>
	</g>
	<g>
		<path d="M315.07,74.82c-1.24,0-2.24-0.96-2.24-2.15c0.11-2.84,4.37-2.84,4.48,0C317.31,73.86,316.31,74.82,315.07,74.82z"/>
		<path d="M315.07,80.19c-1.24,0-2.24-0.96-2.24-2.15c0.11-2.84,4.37-2.84,4.48,0C317.31,79.23,316.31,80.19,315.07,80.19z"/>
		<polyline points="317.31,78.04 317.31,72.68 312.83,72.68 312.83,78.04 		"/>
	</g>
	<g>
		<polyline class="st0" points="330.76,75.09 330.76,69.19 326.28,69.19 326.28,75.09 		"/>
		<g>
			<path class="st0" d="M328.52,77.24c-1.24,0-2.24-0.96-2.24-2.15c0.11-2.84,4.37-2.84,4.48,0
				C330.76,76.28,329.76,77.24,328.52,77.24z"/>
			<path class="st0" d="M328.52,71.33c-1.24,0-2.24-0.96-2.24-2.15c0.11-2.84,4.37-2.84,4.48,0
				C330.76,70.37,329.76,71.33,328.52,71.33z"/>
		</g>
	</g>
	<g>
		<polyline class="st0" points="330.76,86.36 330.76,80.46 326.28,80.46 326.28,86.36 		"/>
		<g>
			<path class="st0" d="M328.52,88.5c-1.24,0-2.24-0.96-2.24-2.15c0.11-2.84,4.37-2.84,4.48,0C330.76,87.54,329.76,88.5,328.52,88.5
				z"/>
			<path class="st0" d="M328.52,82.6c-1.24,0-2.24-0.96-2.24-2.15c0.11-2.84,4.37-2.84,4.48,0C330.76,81.64,329.76,82.6,328.52,82.6
				z"/>
		</g>
	</g>
	<path class="st0" d="M321.8,85.02c0,1.19-1,2.15-2.24,2.15c-2.97-0.11-2.97-4.19,0-4.29C320.79,82.87,321.8,83.83,321.8,85.02z"/>
	<g>
		<polyline class="st0" points="339.73,78.04 339.73,72.14 335.25,72.14 335.25,78.04 		"/>
		<g>
			<path class="st0" d="M337.49,80.19c-1.24,0-2.24-0.96-2.24-2.15c0.11-2.84,4.37-2.84,4.48,0
				C339.73,79.23,338.73,80.19,337.49,80.19z"/>
			<path class="st0" d="M337.49,74.29c-1.24,0-2.24-0.96-2.24-2.15c0.11-2.84,4.37-2.84,4.48,0
				C339.73,73.32,338.73,74.29,337.49,74.29z"/>
		</g>
	</g>
	<path class="st5" d="M339.73,83.41c0,1.19-1,2.15-2.24,2.15c-2.97-0.11-2.97-4.19,0-4.29C338.73,81.26,339.73,82.22,339.73,83.41z"
		/>
	<g>
		<path d="M341.98,61.41c-1.24,0-2.24-0.96-2.24-2.15c0.11-2.84,4.37-2.84,4.48,0C344.22,60.45,343.21,61.41,341.98,61.41z"/>
		<path d="M341.98,66.77c-1.24,0-2.24-0.96-2.24-2.15c0.11-2.84,4.37-2.84,4.48,0C344.22,65.81,343.21,66.77,341.98,66.77z"/>
		<polyline points="344.22,64.63 344.22,59.26 339.73,59.26 339.73,64.63 		"/>
	</g>
	<g>
		<path d="M341.98,74.6c-1.24,0-2.24-0.96-2.24-2.15c0.11-2.84,4.37-2.84,4.48,0C344.22,73.64,343.21,74.6,341.98,74.6z"/>
		<path d="M341.98,79.96c-1.24,0-2.24-0.96-2.24-2.15c0.11-2.84,4.37-2.84,4.48,0C344.22,79,343.21,79.96,341.98,79.96z"/>
		<polyline points="344.22,77.82 344.22,72.45 339.73,72.45 339.73,77.82 		"/>
	</g>
</g>
<g id="Type">
	<rect x="186.39" y="472.74" class="st6" width="431.68" height="187.59"/>
	<text transform="matrix(1 0 0 1 253.2898 501.7833)"><tspan x="0" y="0" class="st0 st3 st7">FIND YOUR </tspan><tspan x="72.65" y="57.6" class="st0 st3 st7">GAME</tspan></text>
</g>
</svg>
