<?xml version="1.0" encoding="utf-8"?>
<!-- Generator: Adobe Illustrator 24.1.3, SVG Export Plug-In . SVG Version: 6.00 Build 0)  -->
<svg version="1.1" xmlns="http://www.w3.org/2000/svg" xmlns:xlink="http://www.w3.org/1999/xlink" x="0px" y="0px"
	 viewBox="0 0 1125 1125" style="enable-background:new 0 0 1125 1125;" xml:space="preserve">
<style type="text/css">
	.st0{fill:#F1F4EF;}
	.st1{font-family:'Alfarn';}
	.st2{font-size:394.9984px;}
	.st3{fill:#538C3B;}
	.st4{fill:#FFFFFF;}
</style>
<g id="Layer_3">
	<rect x="3.95" y="4.5" class="st0" width="1116.11" height="1116.11"/>
</g>
<g id="Layer_1">
	<text transform="matrix(1.0004 0 0 1 147.2987 507.881)"><tspan x="0" y="0" class="st1 st2">L</tspan><tspan x="259.9" y="0" class="st3 st1 st2">U</tspan><tspan x="571.55" y="0" class="st1 st2">C</tspan><tspan x="0" y="474" class="st1 st2"> HT.</tspan></text>
	<path class="st3" d="M606.68,223.48"/>
	<rect x="419.37" y="201.43" class="st3" width="91.72" height="79.27"/>
	<g>
		<path class="st3" d="M426.86,173.25c-3.61,0-6.54-2.8-6.54-6.26c0.32-8.3,12.76-8.29,13.08,0
			C433.4,170.45,430.47,173.25,426.86,173.25z"/>
		<path class="st3" d="M426.86,188.91c-3.61,0-6.54-2.8-6.54-6.26c0.32-8.3,12.76-8.29,13.08,0
			C433.4,186.11,430.47,188.91,426.86,188.91z"/>
		<polyline class="st3" points="433.4,182.65 433.4,166.99 420.32,166.99 420.32,182.65 		"/>
	</g>
	<g>
		<path class="st3" d="M452.21,196.74c-3.61,0-6.54-2.8-6.54-6.26c0.32-8.3,12.76-8.29,13.08,0
			C458.75,193.93,455.82,196.74,452.21,196.74z"/>
		<path class="st3" d="M452.21,212.39c-3.61,0-6.54-2.8-6.54-6.26c0.32-8.3,12.76-8.29,13.08,0
			C458.75,209.59,455.82,212.39,452.21,212.39z"/>
		<polyline class="st3" points="458.75,206.13 458.75,190.47 445.67,190.47 445.67,206.13 		"/>
	</g>
	<g>
		<path class="st3" d="M478.38,192.04c-3.61,0-6.54-2.8-6.54-6.26c0.32-8.3,12.76-8.29,13.08,0
			C484.92,189.24,481.99,192.04,478.38,192.04z"/>
		<path class="st3" d="M478.38,207.69c-3.61,0-6.54-2.8-6.54-6.26c0.32-8.3,12.76-8.29,13.08,0
			C484.92,204.89,481.99,207.69,478.38,207.69z"/>
		<polyline class="st3" points="484.92,201.43 484.92,185.78 471.84,185.78 471.84,201.43 		"/>
	</g>
	<g>
		<polyline class="st0" points="445.67,217.09 445.67,199.87 432.59,199.87 432.59,217.09 		"/>
		<g>
			<path class="st0" d="M439.13,223.35c-3.61,0-6.54-2.8-6.54-6.26c0.32-8.3,12.76-8.29,13.08,0
				C445.67,220.54,442.74,223.35,439.13,223.35z"/>
			<path class="st0" d="M439.13,206.13c-3.61,0-6.54-2.8-6.54-6.26c0.32-8.3,12.76-8.29,13.08,0
				C445.67,203.32,442.74,206.13,439.13,206.13z"/>
		</g>
	</g>
	<g>
		<path class="st3" d="M426.04,207.69c-3.61,0-6.54-2.8-6.54-6.26c0.32-8.3,12.76-8.29,13.08,0
			C432.59,204.89,429.66,207.69,426.04,207.69z"/>
		<path class="st3" d="M426.04,223.35c-3.61,0-6.54-2.8-6.54-6.26c0.32-8.3,12.76-8.29,13.08,0
			C432.59,220.54,429.66,223.35,426.04,223.35z"/>
		<polyline class="st3" points="432.59,217.09 432.59,201.43 419.5,201.43 419.5,217.09 		"/>
	</g>
	<g>
		<polyline class="st0" points="471.84,208.48 471.84,191.26 458.75,191.26 458.75,208.48 		"/>
		<g>
			<path class="st0" d="M465.29,214.74c-3.61,0-6.54-2.8-6.54-6.26c0.32-8.3,12.76-8.29,13.08,0
				C471.84,211.93,468.91,214.74,465.29,214.74z"/>
			<path class="st0" d="M465.29,197.52c-3.61,0-6.54-2.8-6.54-6.26c0.32-8.3,12.76-8.29,13.08,0
				C471.84,194.71,468.91,197.52,465.29,197.52z"/>
		</g>
	</g>
	<g>
		<polyline class="st0" points="471.84,241.35 471.84,224.13 458.75,224.13 458.75,241.35 		"/>
		<g>
			<path class="st0" d="M465.29,247.61c-3.61,0-6.54-2.8-6.54-6.26c0.32-8.3,12.76-8.29,13.08,0
				C471.84,244.81,468.91,247.61,465.29,247.61z"/>
			<path class="st0" d="M465.29,230.39c-3.61,0-6.54-2.8-6.54-6.26c0.32-8.3,12.76-8.29,13.08,0
				C471.84,227.59,468.91,230.39,465.29,230.39z"/>
		</g>
	</g>
	<path class="st0" d="M445.67,237.44c0,3.46-2.93,6.26-6.54,6.26c-8.67-0.31-8.67-12.22,0-12.52
		C442.74,231.17,445.67,233.98,445.67,237.44z"/>
	<g>
		<polyline class="st0" points="498,217.09 498,199.87 484.92,199.87 484.92,217.09 		"/>
		<g>
			<path class="st0" d="M491.46,223.35c-3.61,0-6.54-2.8-6.54-6.26c0.32-8.3,12.76-8.29,13.08,0
				C498,220.54,495.07,223.35,491.46,223.35z"/>
			<path class="st0" d="M491.46,206.13c-3.61,0-6.54-2.8-6.54-6.26c0.32-8.3,12.76-8.29,13.08,0
				C498,203.32,495.07,206.13,491.46,206.13z"/>
		</g>
	</g>
	<path class="st4" d="M498,232.74c0,3.46-2.93,6.26-6.54,6.26c-8.67-0.31-8.67-12.22,0-12.52C495.07,226.48,498,229.28,498,232.74z"
		/>
	<g>
		<path class="st3" d="M504.55,168.56c-3.61,0-6.54-2.8-6.54-6.26c0.32-8.3,12.76-8.29,13.08,0
			C511.09,165.76,508.16,168.56,504.55,168.56z"/>
		<path class="st3" d="M504.55,184.21c-3.61,0-6.54-2.8-6.54-6.26c0.32-8.3,12.76-8.29,13.08,0
			C511.09,181.41,508.16,184.21,504.55,184.21z"/>
		<polyline class="st3" points="511.09,177.95 511.09,162.3 498,162.3 498,177.95 		"/>
	</g>
	<g>
		<path class="st3" d="M504.55,207.04c-3.61,0-6.54-2.8-6.54-6.26c0.32-8.3,12.76-8.29,13.08,0
			C511.09,204.24,508.16,207.04,504.55,207.04z"/>
		<path class="st3" d="M504.55,222.7c-3.61,0-6.54-2.8-6.54-6.26c0.32-8.3,12.76-8.29,13.08,0
			C511.09,219.89,508.16,222.7,504.55,222.7z"/>
		<polyline class="st3" points="511.09,216.43 511.09,200.78 498.01,200.78 498.01,216.43 		"/>
	</g>
	<rect x="603.11" y="210.78" class="st3" width="91.72" height="79.27"/>
	<path class="st3" d="M642.39,169.96c0,3.46-2.93,6.26-6.54,6.26c-8.67-0.31-8.67-12.22,0-12.52
		C639.46,163.7,642.39,166.51,642.39,169.96z"/>
	<g>
		<path class="st3" d="M610.6,182.6c-3.61,0-6.54-2.8-6.54-6.26c0.32-8.3,12.76-8.29,13.08,0C617.14,179.8,614.21,182.6,610.6,182.6
			z"/>
		<path class="st3" d="M610.6,198.25c-3.61,0-6.54-2.8-6.54-6.26c0.32-8.3,12.76-8.29,13.08,0
			C617.14,195.45,614.21,198.25,610.6,198.25z"/>
		<polyline class="st3" points="617.14,191.99 617.14,176.34 604.06,176.34 604.06,191.99 		"/>
	</g>
	<g>
		<path class="st3" d="M635.95,206.08c-3.61,0-6.54-2.8-6.54-6.26c0.32-8.3,12.76-8.29,13.08,0
			C642.49,203.28,639.56,206.08,635.95,206.08z"/>
		<path class="st3" d="M635.95,221.73c-3.61,0-6.54-2.8-6.54-6.26c0.32-8.3,12.76-8.29,13.08,0
			C642.49,218.93,639.56,221.73,635.95,221.73z"/>
		<polyline class="st3" points="642.49,215.47 642.49,199.82 629.41,199.82 629.41,215.47 		"/>
	</g>
	<g>
		<path class="st3" d="M662.11,201.38c-3.61,0-6.54-2.8-6.54-6.26c0.32-8.3,12.76-8.29,13.08,0
			C668.66,198.58,665.73,201.38,662.11,201.38z"/>
		<path class="st3" d="M662.11,217.04c-3.61,0-6.54-2.8-6.54-6.26c0.32-8.3,12.76-8.29,13.08,0
			C668.66,214.23,665.73,217.04,662.11,217.04z"/>
		<polyline class="st3" points="668.66,210.78 668.66,195.12 655.57,195.12 655.57,210.78 		"/>
	</g>
	<g>
		<polyline class="st0" points="629.41,226.43 629.41,209.21 616.32,209.21 616.32,226.43 		"/>
		<g>
			<path class="st0" d="M622.86,232.69c-3.61,0-6.54-2.8-6.54-6.26c0.32-8.3,12.76-8.29,13.08,0
				C629.41,229.89,626.48,232.69,622.86,232.69z"/>
			<path class="st0" d="M622.86,215.47c-3.61,0-6.54-2.8-6.54-6.26c0.32-8.3,12.76-8.29,13.08,0
				C629.41,212.67,626.48,215.47,622.86,215.47z"/>
		</g>
	</g>
	<g>
		<path class="st3" d="M609.78,217.04c-3.61,0-6.54-2.8-6.54-6.26c0.32-8.3,12.76-8.29,13.08,0
			C616.32,214.23,613.39,217.04,609.78,217.04z"/>
		<path class="st3" d="M609.78,232.69c-3.61,0-6.54-2.8-6.54-6.26c0.32-8.3,12.76-8.29,13.08,0
			C616.32,229.89,613.39,232.69,609.78,232.69z"/>
		<polyline class="st3" points="616.32,226.43 616.32,210.78 603.24,210.78 603.24,226.43 		"/>
	</g>
	<g>
		<polyline class="st0" points="655.57,217.82 655.57,200.6 642.49,200.6 642.49,217.82 		"/>
		<g>
			<path class="st0" d="M649.03,224.08c-3.61,0-6.54-2.8-6.54-6.26c0.32-8.3,12.76-8.29,13.08,0
				C655.57,221.28,652.64,224.08,649.03,224.08z"/>
			<path class="st0" d="M649.03,206.86c-3.61,0-6.54-2.8-6.54-6.26c0.32-8.3,12.76-8.29,13.08,0
				C655.57,204.06,652.64,206.86,649.03,206.86z"/>
		</g>
	</g>
	<g>
		<polyline class="st0" points="655.57,250.69 655.57,233.47 642.49,233.47 642.49,250.69 		"/>
		<g>
			<path class="st0" d="M649.03,256.95c-3.61,0-6.54-2.8-6.54-6.26c0.32-8.3,12.76-8.29,13.08,0
				C655.57,254.15,652.64,256.95,649.03,256.95z"/>
			<path class="st0" d="M649.03,239.74c-3.61,0-6.54-2.8-6.54-6.26c0.32-8.3,12.76-8.29,13.08,0
				C655.57,236.93,652.64,239.74,649.03,239.74z"/>
		</g>
	</g>
	<path class="st0" d="M629.41,246.78c0,3.46-2.93,6.26-6.54,6.26c-8.67-0.31-8.67-12.22,0-12.52
		C626.48,240.52,629.41,243.32,629.41,246.78z"/>
	<g>
		<polyline class="st0" points="681.74,226.43 681.74,209.21 668.66,209.21 668.66,226.43 		"/>
		<g>
			<path class="st0" d="M675.2,232.69c-3.61,0-6.54-2.8-6.54-6.26c0.32-8.3,12.76-8.29,13.08,0
				C681.74,229.89,678.81,232.69,675.2,232.69z"/>
			<path class="st0" d="M675.2,215.47c-3.61,0-6.54-2.8-6.54-6.26c0.32-8.3,12.76-8.29,13.08,0
				C681.74,212.67,678.81,215.47,675.2,215.47z"/>
		</g>
	</g>
	<path class="st4" d="M681.74,242.08c0,3.46-2.93,6.26-6.54,6.26c-8.67-0.31-8.67-12.22,0-12.52
		C678.81,235.82,681.74,238.63,681.74,242.08z"/>
	<g>
		<path class="st3" d="M688.28,177.9c-3.61,0-6.54-2.8-6.54-6.26c0.32-8.3,12.76-8.29,13.08,0
			C694.82,175.1,691.89,177.9,688.28,177.9z"/>
		<path class="st3" d="M688.28,193.56c-3.61,0-6.54-2.8-6.54-6.26c0.32-8.3,12.76-8.29,13.08,0
			C694.82,190.75,691.89,193.56,688.28,193.56z"/>
		<polyline class="st3" points="694.82,187.29 694.82,171.64 681.74,171.64 681.74,187.29 		"/>
	</g>
	<g>
		<path class="st3" d="M688.28,216.39c-3.61,0-6.54-2.8-6.54-6.26c0.32-8.3,12.76-8.29,13.08,0
			C694.83,213.58,691.9,216.39,688.28,216.39z"/>
		<path class="st3" d="M688.28,232.04c-3.61,0-6.54-2.8-6.54-6.26c0.32-8.3,12.76-8.29,13.08,0
			C694.83,229.24,691.9,232.04,688.28,232.04z"/>
		<polyline class="st3" points="694.83,225.78 694.83,210.12 681.74,210.12 681.74,225.78 		"/>
	</g>
</g>
<g id="Layer_2">
</g>
</svg>
