<?xml version="1.0" encoding="utf-8"?>
<!-- Generator: Adobe Illustrator 24.1.3, SVG Export Plug-In . SVG Version: 6.00 Build 0)  -->
<svg version="1.1" xmlns="http://www.w3.org/2000/svg" xmlns:xlink="http://www.w3.org/1999/xlink" x="0px" y="0px"
	 viewBox="0 0 2000 2000" style="enable-background:new 0 0 2000 2000;" xml:space="preserve">
<style type="text/css">
	.st0{fill:#F1F4EF;}
	.st1{fill:#538C3B;}
	.st2{fill:#FFFFFF;}
</style>
<g id="Background">
	<rect x="-1.83" y="0.22" class="st0" width="1999.78" height="1999.78"/>
</g>
<g id="Layer_1">
	<g>
		<path d="M378.71,1101.43v98.66H59.69v-373.3h124.83v274.64H378.71z"/>
		<path class="st1" d="M402.71,1032.1V826.79h124.83v203.18c0,46.93,24.54,71.46,62.42,71.46c39.48,0,60.82-24.53,60.82-71.46
			V826.79h124.83v205.31c0,125.85-88.56,173.32-188.32,173.32C489.13,1205.42,402.71,1157.96,402.71,1032.1z"/>
		<path d="M815.61,1012.9c0-106.12,86.42-191.98,192.59-191.98c54.95,0,104.03,22.93,139.24,59.19l-86.96,87.99
			c-12.8-14.93-31.48-24-52.28-24c-37.88,0-68.82,30.93-68.82,68.79c0,38.4,30.94,69.33,68.82,69.33c20.27,0,38.94-9.07,51.21-23.46
			l88.02,87.46c-35.21,36.26-84.82,59.19-139.24,59.19C902.03,1205.42,815.61,1119.56,815.61,1012.9z"/>
		<path d="M1579.01,826.79v373.3h-124.83V1062.5h-149.91v137.59h-124.83v-373.3h124.83v137.05h149.91V826.79H1579.01z"/>
		<path d="M1724.64,925.45h-110.96v-98.66h346.76v98.66h-110.96v274.64h-124.83V925.45z"/>
	</g>
	<path class="st1" d="M765.78,512.86c0,39.14-23.76,70.87-53.06,70.87c-70.31-3.47-70.29-138.28,0-141.73
		C742.02,442,765.78,473.72,765.78,512.86z"/>
	<path class="st1" d="M712.5,226c-29,0-52.51-30.6-52.51-68.35c2.57-90.57,102.46-90.54,105.02,0
		C765.01,195.39,741.51,226,712.5,226z"/>
	<polyline class="st1" points="765.01,156 765.01,0 660,0 660,156 	"/>
	<path class="st1" d="M655.87,816.13"/>
	<g>
		<polygon class="st0" points="1015.78,1013 1015.78,873.48 1028,873.48 1009,848 1009,1013 		"/>
		<polygon class="st0" points="1002.21,1013 1002.21,873.48 990,873.48 1009,848 1009,1013 		"/>
	</g>
	<g>
		<polygon class="st0" points="1006.82,1007.75 918.13,1074.09 910.81,1064.31 905.99,1091.65 1010.89,1013.18 		"/>
		<polygon class="st0" points="1014.95,1018.62 926.26,1084.96 933.57,1094.74 905.99,1091.65 1010.89,1013.18 		"/>
	</g>
	<circle cx="1009" cy="1013" r="18"/>
	<polygon points="1002.21,944.68 1015.78,944.68 1016.04,1001.33 1002.21,1001.33 	"/>
	<polygon points="950.74,1049.7 958.44,1060.89 1002.21,1028.15 991.98,1018.85 	"/>
	<rect x="403" y="786.36" class="st1" width="123.82" height="107.02"/>
	<path class="st1" d="M456.03,731.26c0,4.67-3.95,8.45-8.83,8.45c-11.7-0.41-11.7-16.49,0-16.91
		C452.07,722.81,456.03,726.59,456.03,731.26z"/>
	<g>
		<path class="st1" d="M413.11,748.32c-4.88,0-8.83-3.78-8.83-8.45c0.43-11.2,17.23-11.2,17.66,0
			C421.94,744.53,417.99,748.32,413.11,748.32z"/>
		<path class="st1" d="M413.11,769.45c-4.88,0-8.83-3.78-8.83-8.45c0.43-11.2,17.23-11.2,17.66,0
			C421.94,765.67,417.99,769.45,413.11,769.45z"/>
		<polyline class="st1" points="421.94,761 421.94,739.86 404.28,739.86 404.28,761 		"/>
	</g>
	<g>
		<path class="st1" d="M447.33,780.02c-4.88,0-8.83-3.78-8.83-8.45c0.43-11.2,17.23-11.2,17.66,0
			C456.16,776.23,452.21,780.02,447.33,780.02z"/>
		<path class="st1" d="M447.33,801.15c-4.88,0-8.83-3.78-8.83-8.45c0.43-11.2,17.23-11.2,17.66,0
			C456.16,797.37,452.21,801.15,447.33,801.15z"/>
		<polyline class="st1" points="456.16,792.7 456.16,771.56 438.5,771.56 438.5,792.7 		"/>
	</g>
	<g>
		<path class="st1" d="M482.66,773.68c-4.88,0-8.83-3.78-8.83-8.45c0.43-11.2,17.23-11.2,17.66,0
			C491.49,769.89,487.54,773.68,482.66,773.68z"/>
		<path class="st1" d="M482.66,794.81c-4.88,0-8.83-3.78-8.83-8.45c0.43-11.2,17.23-11.2,17.66,0
			C491.49,791.03,487.54,794.81,482.66,794.81z"/>
		<polyline class="st1" points="491.49,786.36 491.49,765.22 473.83,765.22 473.83,786.36 		"/>
	</g>
	<g>
		<polyline class="st0" points="438.5,807.49 438.5,784.24 420.84,784.24 420.84,807.49 		"/>
		<g>
			<path class="st0" d="M429.67,815.95c-4.88,0-8.83-3.78-8.83-8.45c0.43-11.2,17.23-11.2,17.66,0
				C438.5,812.16,434.55,815.95,429.67,815.95z"/>
			<path class="st0" d="M429.67,792.7c-4.88,0-8.83-3.78-8.83-8.45c0.43-11.2,17.23-11.2,17.66,0
				C438.5,788.91,434.55,792.7,429.67,792.7z"/>
		</g>
	</g>
	<g>
		<path class="st1" d="M412.01,794.81c-4.88,0-8.83-3.78-8.83-8.45c0.43-11.2,17.23-11.2,17.66,0
			C420.84,791.03,416.88,794.81,412.01,794.81z"/>
		<path class="st1" d="M412.01,815.95c-4.88,0-8.83-3.78-8.83-8.45c0.43-11.2,17.23-11.2,17.66,0
			C420.84,812.16,416.88,815.95,412.01,815.95z"/>
		<polyline class="st1" points="420.84,807.49 420.84,786.36 403.17,786.36 403.17,807.49 		"/>
	</g>
	<g>
		<polyline class="st0" points="473.83,795.87 473.83,772.62 456.16,772.62 456.16,795.87 		"/>
		<g>
			<path class="st0" d="M465,804.32c-4.88,0-8.83-3.78-8.83-8.45c0.43-11.2,17.23-11.2,17.66,0
				C473.83,800.54,469.87,804.32,465,804.32z"/>
			<path class="st0" d="M465,781.07c-4.88,0-8.83-3.78-8.83-8.45c0.43-11.2,17.23-11.2,17.66,0
				C473.83,777.29,469.87,781.07,465,781.07z"/>
		</g>
	</g>
	<g>
		<polyline class="st0" points="473.83,840.25 473.83,817 456.16,817 456.16,840.25 		"/>
		<g>
			<path class="st0" d="M465,848.7c-4.88,0-8.83-3.78-8.83-8.45c0.43-11.2,17.23-11.2,17.66,0C473.83,844.92,469.87,848.7,465,848.7
				z"/>
			<path class="st0" d="M465,825.46c-4.88,0-8.83-3.78-8.83-8.45c0.43-11.2,17.23-11.2,17.66,0
				C473.83,821.67,469.87,825.46,465,825.46z"/>
		</g>
	</g>
	<path class="st0" d="M438.5,834.97c0,4.67-3.95,8.45-8.83,8.45c-11.7-0.41-11.7-16.49,0-16.91
		C434.55,826.51,438.5,830.3,438.5,834.97z"/>
	<g>
		<polyline class="st0" points="509.16,807.49 509.16,784.24 491.49,784.24 491.49,807.49 		"/>
		<g>
			<path class="st0" d="M500.32,815.95c-4.88,0-8.83-3.78-8.83-8.45c0.43-11.2,17.23-11.2,17.66,0
				C509.16,812.16,505.2,815.95,500.32,815.95z"/>
			<path class="st0" d="M500.32,792.7c-4.88,0-8.83-3.78-8.83-8.45c0.43-11.2,17.23-11.2,17.66,0
				C509.16,788.91,505.2,792.7,500.32,792.7z"/>
		</g>
	</g>
	<path class="st2" d="M509.16,828.63c0,4.67-3.95,8.45-8.83,8.45c-11.7-0.41-11.7-16.49,0-16.91
		C505.2,820.17,509.16,823.96,509.16,828.63z"/>
	<g>
		<path class="st1" d="M517.99,741.98c-4.88,0-8.83-3.78-8.83-8.45c0.43-11.2,17.23-11.2,17.66,0
			C526.82,738.19,522.87,741.98,517.99,741.98z"/>
		<path class="st1" d="M517.99,763.11c-4.88,0-8.83-3.78-8.83-8.45c0.43-11.2,17.23-11.2,17.66,0
			C526.82,759.33,522.87,763.11,517.99,763.11z"/>
		<polyline class="st1" points="526.82,754.66 526.82,733.52 509.16,733.52 509.16,754.66 		"/>
	</g>
	<g>
		<path class="st1" d="M517.99,793.93c-4.88,0-8.83-3.78-8.83-8.45c0.43-11.2,17.23-11.2,17.66,0
			C526.82,790.15,522.87,793.93,517.99,793.93z"/>
		<path class="st1" d="M517.99,815.07c-4.88,0-8.83-3.78-8.83-8.45c0.43-11.2,17.23-11.2,17.66,0
			C526.82,811.28,522.87,815.07,517.99,815.07z"/>
		<polyline class="st1" points="526.82,806.61 526.82,785.48 509.16,785.48 509.16,806.61 		"/>
	</g>
	<rect x="651.05" y="798.97" class="st1" width="123.82" height="107.02"/>
	<path class="st1" d="M704.08,743.88c0,4.67-3.95,8.45-8.83,8.45c-11.7-0.41-11.7-16.49,0-16.91
		C700.13,735.42,704.08,739.21,704.08,743.88z"/>
	<g>
		<path class="st1" d="M661.16,760.93c-4.88,0-8.83-3.78-8.83-8.45c0.43-11.2,17.23-11.2,17.66,0
			C670,757.15,666.04,760.93,661.16,760.93z"/>
		<path class="st1" d="M661.16,782.07c-4.88,0-8.83-3.78-8.83-8.45c0.43-11.2,17.23-11.2,17.66,0
			C670,778.28,666.04,782.07,661.16,782.07z"/>
		<polyline class="st1" points="670,773.61 670,752.48 652.33,752.48 652.33,773.61 		"/>
	</g>
	<g>
		<path class="st1" d="M695.39,792.63c-4.88,0-8.83-3.78-8.83-8.45c0.43-11.2,17.23-11.2,17.66,0
			C704.22,788.85,700.27,792.63,695.39,792.63z"/>
		<path class="st1" d="M695.39,813.77c-4.88,0-8.83-3.78-8.83-8.45c0.43-11.2,17.23-11.2,17.66,0
			C704.22,809.98,700.27,813.77,695.39,813.77z"/>
		<polyline class="st1" points="704.22,805.31 704.22,784.18 686.56,784.18 686.56,805.31 		"/>
	</g>
	<g>
		<path class="st1" d="M730.72,786.29c-4.88,0-8.83-3.78-8.83-8.45c0.43-11.2,17.23-11.2,17.66,0
			C739.55,782.51,735.59,786.29,730.72,786.29z"/>
		<path class="st1" d="M730.72,807.43c-4.88,0-8.83-3.78-8.83-8.45c0.43-11.2,17.23-11.2,17.66,0
			C739.55,803.64,735.59,807.43,730.72,807.43z"/>
		<polyline class="st1" points="739.55,798.97 739.55,777.84 721.88,777.84 721.88,798.97 		"/>
	</g>
	<g>
		<polyline class="st0" points="686.56,820.11 686.56,796.86 668.89,796.86 668.89,820.11 		"/>
		<g>
			<path class="st0" d="M677.72,828.56c-4.88,0-8.83-3.78-8.83-8.45c0.43-11.2,17.23-11.2,17.66,0
				C686.56,824.78,682.6,828.56,677.72,828.56z"/>
			<path class="st0" d="M677.72,805.31c-4.88,0-8.83-3.78-8.83-8.45c0.43-11.2,17.23-11.2,17.66,0
				C686.56,801.53,682.6,805.31,677.72,805.31z"/>
		</g>
	</g>
	<g>
		<path class="st1" d="M660.06,807.43c-4.88,0-8.83-3.78-8.83-8.45c0.43-11.2,17.23-11.2,17.66,0
			C668.89,803.64,664.94,807.43,660.06,807.43z"/>
		<path class="st1" d="M660.06,828.56c-4.88,0-8.83-3.78-8.83-8.45c0.43-11.2,17.23-11.2,17.66,0
			C668.89,824.78,664.94,828.56,660.06,828.56z"/>
		<polyline class="st1" points="668.89,820.11 668.89,798.97 651.23,798.97 651.23,820.11 		"/>
	</g>
	<g>
		<polyline class="st0" points="721.88,808.48 721.88,785.24 704.22,785.24 704.22,808.48 		"/>
		<g>
			<path class="st0" d="M713.05,816.94c-4.88,0-8.83-3.78-8.83-8.45c0.43-11.2,17.23-11.2,17.66,0
				C721.88,813.15,717.93,816.94,713.05,816.94z"/>
			<path class="st0" d="M713.05,793.69c-4.88,0-8.83-3.78-8.83-8.45c0.43-11.2,17.23-11.2,17.66,0
				C721.88,789.9,717.93,793.69,713.05,793.69z"/>
		</g>
	</g>
	<g>
		<polyline class="st0" points="721.88,852.86 721.88,829.62 704.22,829.62 704.22,852.86 		"/>
		<g>
			<path class="st0" d="M713.05,861.32c-4.88,0-8.83-3.78-8.83-8.45c0.43-11.2,17.23-11.2,17.66,0
				C721.88,857.53,717.93,861.32,713.05,861.32z"/>
			<path class="st0" d="M713.05,838.07c-4.88,0-8.83-3.78-8.83-8.45c0.43-11.2,17.23-11.2,17.66,0
				C721.88,834.29,717.93,838.07,713.05,838.07z"/>
		</g>
	</g>
	<path class="st0" d="M686.56,847.58c0,4.67-3.95,8.45-8.83,8.45c-11.7-0.41-11.7-16.49,0-16.91
		C682.6,839.13,686.56,842.91,686.56,847.58z"/>
	<g>
		<polyline class="st0" points="757.21,820.11 757.21,796.86 739.55,796.86 739.55,820.11 		"/>
		<g>
			<path class="st0" d="M748.38,828.56c-4.88,0-8.83-3.78-8.83-8.45c0.43-11.2,17.23-11.2,17.66,0
				C757.21,824.78,753.26,828.56,748.38,828.56z"/>
			<path class="st0" d="M748.38,805.31c-4.88,0-8.83-3.78-8.83-8.45c0.43-11.2,17.23-11.2,17.66,0
				C757.21,801.53,753.26,805.31,748.38,805.31z"/>
		</g>
	</g>
	<path class="st2" d="M757.21,841.24c0,4.67-3.95,8.45-8.83,8.45c-11.7-0.41-11.7-16.49,0-16.91
		C753.26,832.79,757.21,836.57,757.21,841.24z"/>
	<g>
		<path class="st1" d="M766.04,754.59c-4.88,0-8.83-3.78-8.83-8.45c0.43-11.2,17.23-11.2,17.66,0
			C774.87,750.81,770.92,754.59,766.04,754.59z"/>
		<path class="st1" d="M766.04,775.73c-4.88,0-8.83-3.78-8.83-8.45c0.43-11.2,17.23-11.2,17.66,0
			C774.87,771.94,770.92,775.73,766.04,775.73z"/>
		<polyline class="st1" points="774.87,767.27 774.87,746.14 757.21,746.14 757.21,767.27 		"/>
	</g>
	<g>
		<path class="st1" d="M766.05,806.55c-4.88,0-8.83-3.78-8.83-8.45c0.43-11.2,17.23-11.2,17.66,0
			C774.88,802.76,770.92,806.55,766.05,806.55z"/>
		<path class="st1" d="M766.05,827.68c-4.88,0-8.83-3.78-8.83-8.45c0.43-11.2,17.23-11.2,17.66,0
			C774.88,823.9,770.92,827.68,766.05,827.68z"/>
		<polyline class="st1" points="774.88,819.23 774.88,798.09 757.21,798.09 757.21,819.23 		"/>
	</g>
</g>
<g id="Layer_2">
</g>
</svg>
